<?xml version="1.0" encoding="UTF-8"?>
<svg width="1800px" height="450px" viewBox="0 0 1800 450" version="1.1" xmlns="http://www.w3.org/2000/svg" xmlns:xlink="http://www.w3.org/1999/xlink">
    <!-- Generator: Sketch 43.2 (39069) - http://www.bohemiancoding.com/sketch -->
    <title>headerNoDots</title>
    <desc>Created with Sketch.</desc>
    <defs></defs>
    <g id="HeaderImageDots" stroke="none" stroke-width="1" fill="none" fill-rule="evenodd">
        <g id="Artboard-4" transform="translate(-184.000000, -378.000000)">
            <rect id="Rectangle-12" fill="#FBFEFE" x="0" y="313" width="2168" height="587"></rect>
            <g id="Group-2" transform="translate(545.000000, 491.000000)">
                <g id="Group-4">
                    <path d="M159,7.00348663 C159,4.79242202 160.789028,3 163.004258,3 L186.995742,3 C189.207233,3 191,4.79942536 191,7.00945862 L191,61 C191,61 192,69 201,69 C210,69 211,61 211,61 L211,7.00945862 C211,4.79509577 212.789028,3 215.004258,3 L238.995742,3 C241.207233,3 243,4.79537646 243,7.00348663 L243,67 C243,67 241,94 202,94 C163,94 159,67 159,67 L159,7.00348663 Z" id="Path-22" stroke="#000000" fill="#1B3857"></path>
                    <g id="BBackground" transform="translate(0.000000, 2.000000)">
                        <path d="M0,91 L0,0.9943822 L56.0000003,0.9943822 C77,-2.32702746e-13 95,27 72,44 C95,56 85,92 51,91 L0,91 Z" id="Path-18" fill="#1B3857"></path>
                        <path d="M32,68 L32,56 L46,56 C46,56 53,62 46,68 L32,68 Z" id="Path-19" fill="#FBFEFE"></path>
                        <path d="M32,34 L32,22 L46,22 C46,22 53,28 46,34 L32,34 Z" id="Path-19" fill="#FBFEFE"></path>
                    </g>
                    <g id="BBackground" transform="translate(386.000000, 2.000000)">
                        <path d="M0,91 L0,0.9943822 L56.0000003,0.9943822 C77,-2.32702746e-13 95,27 72,44 C95,56 85,92 51,91 L0,91 Z" id="Path-18" fill="#1B3857"></path>
                        <path d="M32,68 L32,56 L46,56 C46,56 53,62 46,68 L32,68 Z" id="Path-19" fill="#FBFEFE"></path>
                        <path d="M32,34 L32,22 L46,22 C46,22 53,28 46,34 L32,34 Z" id="Path-19" fill="#FBFEFE"></path>
                    </g>
                    <path d="M816.797645,36 C814.795883,16.3409355 798.189116,1 777.999093,1 L766.000907,1 C744.459619,1 727,18.4594911 727,39.9968649 L727,56.0031351 C727,77.5396183 744.461301,95 766.000907,95 L777.999093,95 C798.531846,95 815.35618,79.1370985 816.886559,59 L781.988434,59 C781.728888,64.56658 777.133527,69 771.5,69 C765.70101,69 761,64.2912292 761,58.5028382 L761,35.4971618 C761,29.6997394 765.699735,25 771.5,25 C777.29899,25 781.988434,30.211609 781.988434,36 L816.797645,36 Z" id="Combined-Shape" fill="#1B3857"></path>
                    <path d="M471,37.9963006 C471,17.0115232 488.006883,0 509.001269,0 L519.998731,0 C540.986252,0 558,17.0226909 558,37.9963006 L558,56.0036994 C558,76.9884768 540.993117,94 519.998731,94 L509.001269,94 C488.013748,94 471,76.9773091 471,56.0036994 L471,37.9963006 Z M503,36.4914797 L503,58.5085203 C503,64.2958354 507.70101,69 513.5,69 C519.300265,69 524,64.3028045 524,58.5085203 L524,36.4914797 C524,30.7041646 519.29899,26 513.5,26 C507.699735,26 503,30.6971955 503,36.4914797 Z" id="Combined-Shape" fill="#1B3857"></path>
                    <path d="M559,37.9963006 C559,17.0115232 576.006883,0 597.001269,0 L607.998731,0 C628.986252,0 646,17.0226909 646,37.9963006 L646,56.0036994 C646,76.9884768 628.993117,94 607.998731,94 L597.001269,94 C576.013748,94 559,76.9773091 559,56.0036994 L559,37.9963006 Z M591,36.4914797 L591,58.5085203 C591,64.2958354 595.70101,69 601.5,69 C607.300265,69 612,64.3028045 612,58.5085203 L612,36.4914797 C612,30.7041646 607.29899,26 601.5,26 C595.699735,26 591,30.6971955 591,36.4914797 Z" id="Combined-Shape" fill="#1B3857"></path>
                    <path d="M91.9957554,93.0180283 C89.7889606,93.0180283 88,91.2203685 88,89.0191625 L88,5.99886573 C88,3.79035317 89.7984837,2 91.998835,2 L117.016313,2 C119.224809,2 121.015148,3.79537652 121.015148,6.00348675 L121.015148,61.996515 C121.015148,64.2075797 122.796906,66.0000018 125.009783,66.0000018 L155.018526,66.0000018 C157.224702,66.0000018 159.013161,67.7936538 159.013161,70.001142 L159.013161,89.016888 C159.013161,91.2266568 157.222253,93.0180283 155.017405,93.0180283 L91.9957554,93.0180283 Z" id="Path-21" fill="#1B3857"></path>
                    <path d="M249,89.0019262 C249,91.2100014 250.792557,93 253.004799,93 L318.995201,93 C321.20699,93 323,91.2020617 323,88.9971835 L323,72.0028165 C323,69.792122 321.207089,68 318.993278,68 L280,68 L280,59 L315.999974,59 C318.209128,59 320,57.2143671 320,54.9937057 L320,40.0062943 C320,37.793679 318.203575,36 315.999974,36 L280,36 L280,27 L319.003821,27 C321.217271,27 323.011626,25.2020615 323.011626,22.9971831 L323.011626,6.0028142 C323.011626,3.79211947 321.218787,1.9999973 319.006198,1.9999973 L253.005428,1.9999973 C250.793291,1.9999973 249,3.7973011 249,5.99807108 L249,89.0019262 Z" id="Path-23" fill="#1B3857"></path>
                    <path d="M988,89.0019289 C988,91.2100041 989.792557,93.0000027 992.004799,93.0000027 L1057.9952,93.0000027 C1060.20699,93.0000027 1062,91.2020644 1062,88.9971862 L1062,72.0028192 C1062,69.7921247 1060.20709,68.0000027 1057.99328,68.0000027 L1019,68.0000027 L1019,59.0000027 L1054.99997,59.0000027 C1057.20913,59.0000027 1059,57.2143698 1059,54.9937085 L1059,40.006297 C1059,37.7936817 1057.20358,36.0000027 1054.99997,36.0000027 L1019,36.0000027 L1019,27.0000027 L1058.00382,27.0000027 C1060.21727,27.0000027 1062.01163,25.2020642 1062.01163,22.9971858 L1062.01163,6.0028169 C1062.01163,3.79212217 1060.21879,2 1058.0062,2 L992.005428,2 C989.793291,2 988,3.7973038 988,5.99807378 L988,89.0019289 Z" id="Path-23" fill="#1B3857"></path>
                    <path d="M654.005074,1.99777315 C651.793133,1.999003 650,3.79730375 650,5.99807366 L650,89.0019263 C650,91.2100015 651.789028,93 654.004258,93 L677.995742,93 C680.207233,93 682,91.2132053 682,89.0007252 L682,63 L697.943941,89.5732349 C699.079471,91.465785 701.785246,93 703.990179,93 L732.009821,93 C734.213536,93 735.109352,91.4496128 734.003661,89.5248908 L710.996339,49.4751092 C709.893792,47.5558594 709.904533,44.4442038 711.014125,42.5357051 L731.985875,6.46429495 C733.098246,4.55101768 732.216227,3 730.002107,3 L702.997893,3 C700.789917,3 698.032242,4.50540161 696.837726,6.36353699 L681,31 L681,5.9870208 C681,3.77553069 679.199316,1.98376494 676.994926,1.9849906 L654.005074,1.99777315 Z" id="Path-24" fill="#1B3857"></path>
                    <g id="Group-3" transform="translate(809.000000, 2.000000)">
                        <path d="M4.0050741,90 C1.79313275,90 0.596625626,88.3219904 1.33932193,86.2331571 L30.6606781,3.76684294 C31.4003651,1.68647303 33.7845012,0 35.9995241,0 L63.0147587,0 C65.2236349,0 67.6141368,1.68784283 68.3530069,3.76684294 L97.6612759,86.2331571 C98.4006328,88.313527 97.2097243,90 95.0086803,90 L71.9751948,90 C69.7708498,90 67.3744736,88.3173627 66.6239938,86.2451899 L65.3598813,82.7548101 C64.6088396,80.6810857 62.2078053,79 59.9981215,79 L39.0018785,79 C36.791702,79 34.3881319,80.6826373 33.6346145,82.7548101 L32.3653855,86.2451899 C31.6113039,88.3189143 29.1993157,90 26.9949259,90 L4.0050741,90 Z" id="Path-25" fill="#1B3857"></path>
                        <polygon id="Path-26" fill="#FBFEFE" points="41 54 49 30 57 54"></polygon>
                    </g>
                    <path d="M952,30 C967.436927,29.6715548 983,30 983,30 C983,-9 902,-9 902,30 C902,65 954,55 953,65 C951,74 932,68 932,64 C915.511893,63.6946647 899,64 899,64 C899,103 986.022985,105 986.022985,64 C986.022985,31 945,39 936,31 C932.353491,27.355954 940,21 952,30 Z" id="Path-27" fill="#1B3857"></path>
                </g>
                <g id="Group-5" transform="translate(301.000000, 129.000000)">
                    <path d="M88,89.0019289 C88,91.2100041 89.7925573,93.0000027 92.0047992,93.0000027 L157.995201,93.0000027 C160.20699,93.0000027 162,91.2020644 162,88.9971862 L162,72.0028192 C162,69.7921247 160.207089,68.0000027 157.993278,68.0000027 L119,68.0000027 L119,59.0000027 L154.999974,59.0000027 C157.209128,59.0000027 159,57.2143698 159,54.9937085 L159,40.006297 C159,37.7936817 157.203575,36.0000027 154.999974,36.0000027 L119,36.0000027 L119,27.0000027 L158.003821,27.0000027 C160.217271,27.0000027 162.011626,25.2020642 162.011626,22.9971858 L162.011626,6.0028169 C162.011626,3.79212217 160.218787,2 158.006198,2 L92.0054284,2 C89.7932914,2 88,3.7973038 88,5.99807378 L88,89.0019289 Z" id="Path-23-Copy" fill="#0EA3DD"></path>
                    <path d="M214,30.25 C229.436927,29.9215548 245,30.25 245,30.25 C245,-8.75 164,-8.75 164,30.25 C164,65.25 216,55.25 215,65.25 C213,74.25 194,68.25 194,64.25 C177.511893,63.9446647 161,64.25 161,64.25 C161,103.25 248.022985,105.25 248.022985,64.25 C248.022985,31.25 207,39.25 198,31.25 C194.353491,27.605954 202,21.25 214,30.25 Z" id="Path-27" fill="#0EA3DD"></path>
                    <path d="M249,89.0020607 C249,91.2100616 250.797659,93 252.997,93 L278.003,93 C280.210482,93 282,91.2022159 282,89.0020607 L282,6.99793926 C282,4.78993837 280.202341,3 278.003,3 L252.997,3 C250.789518,3 249,4.79778412 249,6.99793926 L249,89.0020607 Z" id="Path-28" fill="#0EA3DD"></path>
                    <path d="M379,89.0019263 C379,91.2100015 380.786795,93 382.999275,93 L405.000725,93 C407.209464,93 409,91.2147544 409,89.0098214 L409,57 L431.715142,89.7098049 C432.977034,91.5269295 435.792455,93 437.998471,93 L457.001529,93 C459.209824,93 461,91.2025877 461,89.0016849 L461,5.99282071 C461,3.78461229 459.209714,1.99450566 457.008657,1.99450566 L433.97504,1.99450566 C431.770682,1.99450566 429.983698,3.78469977 429.983698,5.98547301 L429.983698,41.0000034 L408.096896,5.40977194 C406.938812,3.5266069 404.207545,2 402.001529,2 L382.998471,2 C380.790176,2 379,3.79730375 379,5.99807366 L379,89.0019263 Z" id="Path-29" fill="#0EA3DD"></path>
                    <path d="M4.00042849,3 C1.79105284,3 0,4.79792084 0,6.99704509 L0,88.0029549 C0,90.210462 1.79897617,92 4.00042849,92 L55.0090902,92 C55.0090902,92 84,89 84,48 C84,7 55.0090902,3 55.0090902,3 L4.00042849,3 Z" id="Path-30" fill="#0EA3DD"></path>
                    <path d="M32,29.0052699 C32,27.8977899 32.9019504,27 34.0085302,27 L44,27 C44,27 49.4835793,29.0677913 51,36 L51,59 C49.4835793,65.9322087 44,68 44,68 L34.0085302,68 C32.8992496,68 32,67.1055269 32,65.9947301 L32,29.0052699 Z" id="Path" fill="#FBFEFE"></path>
                    <path d="M375,28.0028992 C375,30.210437 373.213218,32 371.000754,32 L345.000212,32 L341,32 C340,24 320,24 320,32 L320,61 C320,71 342,72 342,61 C342.045219,60.9958892 342.007452,60.9768616 342.007452,60.9768616 C342.003336,59.8850711 341.112567,59 340.000385,59 L336.009763,59 C333.795232,59 332,57.2075324 332,55.00077 L332,42.99923 C332,40.7905162 333.792911,39 336.006722,39 L370.993278,39 C373.206129,39 375,40.7924553 375,42.9984707 L375,66 C375,106 287,103 287,66 L287,28 C287,-9 375,-9 375,28 L375,28.0028992 Z" id="Path-31" fill="#0EA3DD"></path>
                </g>
            </g>
        </g>
    </g>
</svg>