<?xml version="1.0" encoding="UTF-8"?>
<svg width="506px" height="80px" viewBox="0 0 506 80" version="1.1" xmlns="http://www.w3.org/2000/svg" xmlns:xlink="http://www.w3.org/1999/xlink">
    <!-- Generator: Sketch 43.2 (39069) - http://www.bohemiancoding.com/sketch -->
    <title>Slice 3</title>
    <desc>Created with Sketch.</desc>
    <defs></defs>
    <g id="Page-1" stroke="none" stroke-width="1" fill="none" fill-rule="evenodd">
        <path d="M48.9464529,26.6777765 C50.8461766,27.3708614 52.3862069,29.5667707 52.3862069,31.6009153 L52.3862069,67.2884678 C52.3862069,69.3143574 50.8187481,70.4609419 48.8774263,69.8690192 C48.8774263,69.8690192 39.6965517,66.8193568 32.0827586,65.9038613 C24.4689655,64.9883658 17.8120327,62.8257943 17.8120327,62.8257943 C15.8819127,62.2607184 14.2734634,60.1606947 14.2216283,58.1365931 C14.2216283,58.1365931 14,50.2624966 14,46.3732908 C14,42.484085 14.9517241,35.0821797 14.6344828,32.3356932 C14.3172414,29.5892067 14.3279559,18.7686513 14.3279559,18.7686513 C14.3220384,16.7519407 15.9556552,15.0364405 17.9795846,14.9217721 C17.9795846,14.9217721 25.4206897,14.6361136 29.862069,13.7206181 C35.2039477,12.6195039 40.0571732,11.7414102 43.8206897,11.2792968 C47.5842061,10.8171835 55.3942045,10.0082036 55.3942045,10.0082036 C57.4122924,9.79637549 59.132735,11.2722996 59.2351704,13.2875744 C59.2351704,13.2875744 60,28.0633809 60,29.8943719 C60,31.7253629 59.1943773,51.7334791 59.1943773,51.7334791 C59.1136877,53.7555774 57.5655295,56.1078919 55.7390646,56.9862723 L55.2413793,57.2256183 L55.2413793,17.8698682 C55.2413793,15.8439786 53.603977,14.3985348 51.5980243,14.6397096 L28.4295619,17.4252441 C26.4173925,17.6671664 26.3292431,18.4262362 28.2259609,19.1182244 L48.9464529,26.6777765 Z" id="Path-2" fill="#01A1DD"></path>
        <path d="M32.9084777,18.1492388 C34.3937438,17.8241999 36.7326522,18.0436178 38.1318789,18.6390257 L50.3113146,23.8216971 C52.327152,24.6794891 52.2342203,25.8158206 51.5128417,26 L51.5128417,26 L32.4568778,18.9232154 C31.825114,18.6885983 31.8383715,18.3834231 32.50653,18.2372019 L32.9084777,18.1492388 Z" id="Path-3" fill="#01A1DD"></path>
    </g>
</svg>